solid 
facet normal -1.0 0.0 0.0
outer loop
vertex -0.25 -0.25 0.25
vertex -0.25 0.25 0.25
vertex -0.25 -0.25 -0.25
endloop
endfacet
facet normal 0.0 -1.0 0.0
outer loop
vertex 0.25 -0.25 -0.25
vertex -0.25 -0.25 0.25
vertex -0.25 -0.25 -0.25
endloop
endfacet
facet normal -1.0 0.0 0.0
outer loop
vertex -0.25 -0.25 -0.25
vertex -0.25 0.25 0.25
vertex -0.25 0.25 -0.25
endloop
endfacet
facet normal 0.0 0.0 -1.0
outer loop
vertex -0.25 0.25 -0.25
vertex 0.25 -0.25 -0.25
vertex -0.25 -0.25 -0.25
endloop
endfacet
facet normal 0.0 0.0 1.0
outer loop
vertex -0.25 -0.25 0.25
vertex 0.25 0.25 0.25
vertex -0.25 0.25 0.25
endloop
endfacet
facet normal 0.0 -1.0 0.0
outer loop
vertex 0.25 -0.25 0.25
vertex -0.25 -0.25 0.25
vertex 0.25 -0.25 -0.25
endloop
endfacet
facet normal 0.0 0.0 1.0
outer loop
vertex 0.25 -0.25 0.25
vertex 0.25 0.25 0.25
vertex -0.25 -0.25 0.25
endloop
endfacet
facet normal 0.0 1.0 0.0
outer loop
vertex -0.25 0.25 0.25
vertex 0.25 0.25 0.25
vertex -0.25 0.25 -0.25
endloop
endfacet
facet normal 0.0 0.0 -1.0
outer loop
vertex 0.25 0.25 -0.25
vertex 0.25 -0.25 -0.25
vertex -0.25 0.25 -0.25
endloop
endfacet
facet normal 0.0 1.0 0.0
outer loop
vertex -0.25 0.25 -0.25
vertex 0.25 0.25 0.25
vertex 0.25 0.25 -0.25
endloop
endfacet
facet normal 1.0 0.0 0.0
outer loop
vertex 0.25 0.25 -0.25
vertex 0.25 -0.25 0.25
vertex 0.25 -0.25 -0.25
endloop
endfacet
facet normal 1.0 0.0 0.0
outer loop
vertex 0.25 0.25 0.25
vertex 0.25 -0.25 0.25
vertex 0.25 0.25 -0.25
endloop
endfacet
facet normal -1.0 0.0 0.0
outer loop
vertex 3.75 -0.25 0.25
vertex 3.75 0.25 0.25
vertex 3.75 -0.25 -0.25
endloop
endfacet
facet normal 0.0 -1.0 0.0
outer loop
vertex 4.25 -0.25 -0.25
vertex 3.75 -0.25 0.25
vertex 3.75 -0.25 -0.25
endloop
endfacet
facet normal -1.0 0.0 0.0
outer loop
vertex 3.75 -0.25 -0.25
vertex 3.75 0.25 0.25
vertex 3.75 0.25 -0.25
endloop
endfacet
facet normal 0.0 0.0 -1.0
outer loop
vertex 3.75 0.25 -0.25
vertex 4.25 -0.25 -0.25
vertex 3.75 -0.25 -0.25
endloop
endfacet
facet normal 0.0 0.0 1.0
outer loop
vertex 3.75 -0.25 0.25
vertex 4.25 0.25 0.25
vertex 3.75 0.25 0.25
endloop
endfacet
facet normal 0.0 -1.0 0.0
outer loop
vertex 4.25 -0.25 0.25
vertex 3.75 -0.25 0.25
vertex 4.25 -0.25 -0.25
endloop
endfacet
facet normal 0.0 0.0 1.0
outer loop
vertex 4.25 -0.25 0.25
vertex 4.25 0.25 0.25
vertex 3.75 -0.25 0.25
endloop
endfacet
facet normal 0.0 1.0 0.0
outer loop
vertex 3.75 0.25 0.25
vertex 4.25 0.25 0.25
vertex 3.75 0.25 -0.25
endloop
endfacet
facet normal 0.0 0.0 -1.0
outer loop
vertex 4.25 0.25 -0.25
vertex 4.25 -0.25 -0.25
vertex 3.75 0.25 -0.25
endloop
endfacet
facet normal 0.0 1.0 0.0
outer loop
vertex 3.75 0.25 -0.25
vertex 4.25 0.25 0.25
vertex 4.25 0.25 -0.25
endloop
endfacet
facet normal 1.0 0.0 0.0
outer loop
vertex 4.25 0.25 -0.25
vertex 4.25 -0.25 0.25
vertex 4.25 -0.25 -0.25
endloop
endfacet
facet normal 1.0 0.0 0.0
outer loop
vertex 4.25 0.25 0.25
vertex 4.25 -0.25 0.25
vertex 4.25 0.25 -0.25
endloop
endfacet
facet normal -1.0 0.0 0.0
outer loop
vertex -0.25 3.75 0.25
vertex -0.25 4.25 0.25
vertex -0.25 3.75 -0.25
endloop
endfacet
facet normal 0.0 -1.0 0.0
outer loop
vertex 0.25 3.75 -0.25
vertex -0.25 3.75 0.25
vertex -0.25 3.75 -0.25
endloop
endfacet
facet normal -1.0 0.0 0.0
outer loop
vertex -0.25 3.75 -0.25
vertex -0.25 4.25 0.25
vertex -0.25 4.25 -0.25
endloop
endfacet
facet normal 0.0 0.0 -1.0
outer loop
vertex -0.25 4.25 -0.25
vertex 0.25 3.75 -0.25
vertex -0.25 3.75 -0.25
endloop
endfacet
facet normal 0.0 0.0 1.0
outer loop
vertex -0.25 3.75 0.25
vertex 0.25 4.25 0.25
vertex -0.25 4.25 0.25
endloop
endfacet
facet normal 0.0 -1.0 0.0
outer loop
vertex 0.25 3.75 0.25
vertex -0.25 3.75 0.25
vertex 0.25 3.75 -0.25
endloop
endfacet
facet normal 0.0 0.0 1.0
outer loop
vertex 0.25 3.75 0.25
vertex 0.25 4.25 0.25
vertex -0.25 3.75 0.25
endloop
endfacet
facet normal 0.0 1.0 0.0
outer loop
vertex -0.25 4.25 0.25
vertex 0.25 4.25 0.25
vertex -0.25 4.25 -0.25
endloop
endfacet
facet normal 0.0 0.0 -1.0
outer loop
vertex 0.25 4.25 -0.25
vertex 0.25 3.75 -0.25
vertex -0.25 4.25 -0.25
endloop
endfacet
facet normal 0.0 1.0 0.0
outer loop
vertex -0.25 4.25 -0.25
vertex 0.25 4.25 0.25
vertex 0.25 4.25 -0.25
endloop
endfacet
facet normal 1.0 0.0 0.0
outer loop
vertex 0.25 4.25 -0.25
vertex 0.25 3.75 0.25
vertex 0.25 3.75 -0.25
endloop
endfacet
facet normal 1.0 0.0 0.0
outer loop
vertex 0.25 4.25 0.25
vertex 0.25 3.75 0.25
vertex 0.25 4.25 -0.25
endloop
endfacet
facet normal -1.0 0.0 0.0
outer loop
vertex -0.25 2.75 0.25
vertex -0.25 3.25 0.25
vertex -0.25 2.75 -0.25
endloop
endfacet
facet normal 0.0 -1.0 0.0
outer loop
vertex 0.25 2.75 -0.25
vertex -0.25 2.75 0.25
vertex -0.25 2.75 -0.25
endloop
endfacet
facet normal -1.0 0.0 0.0
outer loop
vertex -0.25 2.75 -0.25
vertex -0.25 3.25 0.25
vertex -0.25 3.25 -0.25
endloop
endfacet
facet normal 0.0 0.0 -1.0
outer loop
vertex -0.25 3.25 -0.25
vertex 0.25 2.75 -0.25
vertex -0.25 2.75 -0.25
endloop
endfacet
facet normal 0.0 0.0 1.0
outer loop
vertex -0.25 2.75 0.25
vertex 0.25 3.25 0.25
vertex -0.25 3.25 0.25
endloop
endfacet
facet normal 0.0 -1.0 0.0
outer loop
vertex 0.25 2.75 0.25
vertex -0.25 2.75 0.25
vertex 0.25 2.75 -0.25
endloop
endfacet
facet normal 0.0 0.0 1.0
outer loop
vertex 0.25 2.75 0.25
vertex 0.25 3.25 0.25
vertex -0.25 2.75 0.25
endloop
endfacet
facet normal 0.0 1.0 0.0
outer loop
vertex -0.25 3.25 0.25
vertex 0.25 3.25 0.25
vertex -0.25 3.25 -0.25
endloop
endfacet
facet normal 0.0 0.0 -1.0
outer loop
vertex 0.25 3.25 -0.25
vertex 0.25 2.75 -0.25
vertex -0.25 3.25 -0.25
endloop
endfacet
facet normal 0.0 1.0 0.0
outer loop
vertex -0.25 3.25 -0.25
vertex 0.25 3.25 0.25
vertex 0.25 3.25 -0.25
endloop
endfacet
facet normal 1.0 0.0 0.0
outer loop
vertex 0.25 3.25 -0.25
vertex 0.25 2.75 0.25
vertex 0.25 2.75 -0.25
endloop
endfacet
facet normal 1.0 0.0 0.0
outer loop
vertex 0.25 3.25 0.25
vertex 0.25 2.75 0.25
vertex 0.25 3.25 -0.25
endloop
endfacet
facet normal -1.0 0.0 0.0
outer loop
vertex -0.25 -0.25 4.25
vertex -0.25 0.25 4.25
vertex -0.25 -0.25 3.75
endloop
endfacet
facet normal 0.0 -1.0 0.0
outer loop
vertex 0.25 -0.25 3.75
vertex -0.25 -0.25 4.25
vertex -0.25 -0.25 3.75
endloop
endfacet
facet normal -1.0 0.0 0.0
outer loop
vertex -0.25 -0.25 3.75
vertex -0.25 0.25 4.25
vertex -0.25 0.25 3.75
endloop
endfacet
facet normal 0.0 0.0 -1.0
outer loop
vertex -0.25 0.25 3.75
vertex 0.25 -0.25 3.75
vertex -0.25 -0.25 3.75
endloop
endfacet
facet normal 0.0 0.0 1.0
outer loop
vertex -0.25 -0.25 4.25
vertex 0.25 0.25 4.25
vertex -0.25 0.25 4.25
endloop
endfacet
facet normal 0.0 -1.0 0.0
outer loop
vertex 0.25 -0.25 4.25
vertex -0.25 -0.25 4.25
vertex 0.25 -0.25 3.75
endloop
endfacet
facet normal 0.0 0.0 1.0
outer loop
vertex 0.25 -0.25 4.25
vertex 0.25 0.25 4.25
vertex -0.25 -0.25 4.25
endloop
endfacet
facet normal 0.0 1.0 0.0
outer loop
vertex -0.25 0.25 4.25
vertex 0.25 0.25 4.25
vertex -0.25 0.25 3.75
endloop
endfacet
facet normal 0.0 0.0 -1.0
outer loop
vertex 0.25 0.25 3.75
vertex 0.25 -0.25 3.75
vertex -0.25 0.25 3.75
endloop
endfacet
facet normal 0.0 1.0 0.0
outer loop
vertex -0.25 0.25 3.75
vertex 0.25 0.25 4.25
vertex 0.25 0.25 3.75
endloop
endfacet
facet normal 1.0 0.0 0.0
outer loop
vertex 0.25 0.25 3.75
vertex 0.25 -0.25 4.25
vertex 0.25 -0.25 3.75
endloop
endfacet
facet normal 1.0 0.0 0.0
outer loop
vertex 0.25 0.25 4.25
vertex 0.25 -0.25 4.25
vertex 0.25 0.25 3.75
endloop
endfacet
facet normal -1.0 0.0 0.0
outer loop
vertex -0.25 -0.25 3.25
vertex -0.25 0.25 3.25
vertex -0.25 -0.25 2.75
endloop
endfacet
facet normal 0.0 -1.0 0.0
outer loop
vertex 0.25 -0.25 2.75
vertex -0.25 -0.25 3.25
vertex -0.25 -0.25 2.75
endloop
endfacet
facet normal -1.0 0.0 0.0
outer loop
vertex -0.25 -0.25 2.75
vertex -0.25 0.25 3.25
vertex -0.25 0.25 2.75
endloop
endfacet
facet normal 0.0 0.0 -1.0
outer loop
vertex -0.25 0.25 2.75
vertex 0.25 -0.25 2.75
vertex -0.25 -0.25 2.75
endloop
endfacet
facet normal 0.0 0.0 1.0
outer loop
vertex -0.25 -0.25 3.25
vertex 0.25 0.25 3.25
vertex -0.25 0.25 3.25
endloop
endfacet
facet normal 0.0 -1.0 0.0
outer loop
vertex 0.25 -0.25 3.25
vertex -0.25 -0.25 3.25
vertex 0.25 -0.25 2.75
endloop
endfacet
facet normal 0.0 0.0 1.0
outer loop
vertex 0.25 -0.25 3.25
vertex 0.25 0.25 3.25
vertex -0.25 -0.25 3.25
endloop
endfacet
facet normal 0.0 1.0 0.0
outer loop
vertex -0.25 0.25 3.25
vertex 0.25 0.25 3.25
vertex -0.25 0.25 2.75
endloop
endfacet
facet normal 0.0 0.0 -1.0
outer loop
vertex 0.25 0.25 2.75
vertex 0.25 -0.25 2.75
vertex -0.25 0.25 2.75
endloop
endfacet
facet normal 0.0 1.0 0.0
outer loop
vertex -0.25 0.25 2.75
vertex 0.25 0.25 3.25
vertex 0.25 0.25 2.75
endloop
endfacet
facet normal 1.0 0.0 0.0
outer loop
vertex 0.25 0.25 2.75
vertex 0.25 -0.25 3.25
vertex 0.25 -0.25 2.75
endloop
endfacet
facet normal 1.0 0.0 0.0
outer loop
vertex 0.25 0.25 3.25
vertex 0.25 -0.25 3.25
vertex 0.25 0.25 2.75
endloop
endfacet
facet normal -1.0 0.0 0.0
outer loop
vertex -0.25 -0.25 2.25
vertex -0.25 0.25 2.25
vertex -0.25 -0.25 1.75
endloop
endfacet
facet normal 0.0 -1.0 0.0
outer loop
vertex 0.25 -0.25 1.75
vertex -0.25 -0.25 2.25
vertex -0.25 -0.25 1.75
endloop
endfacet
facet normal -1.0 0.0 0.0
outer loop
vertex -0.25 -0.25 1.75
vertex -0.25 0.25 2.25
vertex -0.25 0.25 1.75
endloop
endfacet
facet normal 0.0 0.0 -1.0
outer loop
vertex -0.25 0.25 1.75
vertex 0.25 -0.25 1.75
vertex -0.25 -0.25 1.75
endloop
endfacet
facet normal 0.0 0.0 1.0
outer loop
vertex -0.25 -0.25 2.25
vertex 0.25 0.25 2.25
vertex -0.25 0.25 2.25
endloop
endfacet
facet normal 0.0 -1.0 0.0
outer loop
vertex 0.25 -0.25 2.25
vertex -0.25 -0.25 2.25
vertex 0.25 -0.25 1.75
endloop
endfacet
facet normal 0.0 0.0 1.0
outer loop
vertex 0.25 -0.25 2.25
vertex 0.25 0.25 2.25
vertex -0.25 -0.25 2.25
endloop
endfacet
facet normal 0.0 1.0 0.0
outer loop
vertex -0.25 0.25 2.25
vertex 0.25 0.25 2.25
vertex -0.25 0.25 1.75
endloop
endfacet
facet normal 0.0 0.0 -1.0
outer loop
vertex 0.25 0.25 1.75
vertex 0.25 -0.25 1.75
vertex -0.25 0.25 1.75
endloop
endfacet
facet normal 0.0 1.0 0.0
outer loop
vertex -0.25 0.25 1.75
vertex 0.25 0.25 2.25
vertex 0.25 0.25 1.75
endloop
endfacet
facet normal 1.0 0.0 0.0
outer loop
vertex 0.25 0.25 1.75
vertex 0.25 -0.25 2.25
vertex 0.25 -0.25 1.75
endloop
endfacet
facet normal 1.0 0.0 0.0
outer loop
vertex 0.25 0.25 2.25
vertex 0.25 -0.25 2.25
vertex 0.25 0.25 1.75
endloop
endfacet
endsolid